<svg width="128" height="24" viewBox="0 0 192 36" fill="none" xmlns="http://www.w3.org/2000/svg"><path d="M36 0H0V0.9612H36V0Z" fill="currentColor"></path><path d="M14.0004 1.9188H1.00081V2.88H14.0004V1.9188Z" fill="currentColor"></path><path d="M34.9992 1.9188H21.9996V2.88H34.9992V1.9188Z" fill="currentColor"></path><path d="M0 36H36V35.0388H0V36Z" fill="currentColor"></path><path d="M0.997182 34.0812H2.95198V33.12H0.997182V34.0812Z" fill="currentColor"></path><path d="M11.5201 4.7988H11.9737V3.8412H1.94045V4.7988H2.39405C2.543 4.7988 2.68584 4.85797 2.79116 4.96329C2.89648 5.06861 2.95565 5.21145 2.95565 5.3604V34.4808C2.95565 34.5544 2.9411 34.6272 2.91283 34.6952C2.88457 34.7631 2.84314 34.8248 2.79094 34.8766C2.73875 34.9285 2.67681 34.9695 2.60869 34.9974C2.54058 35.0252 2.46763 35.0393 2.39405 35.0388H1.94045V36H11.9665V35.0388H11.5201C11.4466 35.0393 11.3739 35.0252 11.306 34.9973C11.238 34.9694 11.1763 34.9283 11.1244 34.8764C11.0725 34.8245 11.0314 34.7628 11.0036 34.6949C10.9757 34.627 10.9616 34.5542 10.9621 34.4808V5.3604C10.9616 5.28682 10.9757 5.21387 11.0035 5.14576C11.0313 5.07764 11.0723 5.0157 11.1242 4.9635C11.1761 4.91131 11.2377 4.86988 11.3057 4.84162C11.3736 4.81335 11.4465 4.7988 11.5201 4.7988ZM5.15525 34.4808C5.15525 34.5544 5.1407 34.6272 5.11243 34.6952C5.08417 34.7631 5.04274 34.8248 4.99055 34.8766C4.93835 34.9285 4.87641 34.9695 4.80829 34.9974C4.74018 35.0252 4.66723 35.0393 4.59365 35.0388H4.51445C4.36708 35.0378 4.22608 34.9786 4.12221 34.8741C4.01834 34.7696 3.96005 34.6282 3.96005 34.4808V5.3604C3.96005 5.21145 4.01922 5.06861 4.12454 4.96329C4.22986 4.85797 4.3727 4.7988 4.52165 4.7988H4.60085C4.6746 4.7988 4.74763 4.81332 4.81577 4.84155C4.8839 4.86977 4.94581 4.91114 4.99796 4.96329C5.05011 5.01544 5.09148 5.07735 5.1197 5.14548C5.14792 5.21362 5.16245 5.28665 5.16245 5.3604L5.15525 34.4808ZM7.55285 34.4808C7.55333 34.5542 7.53922 34.627 7.51135 34.6949C7.48348 34.7628 7.44239 34.8245 7.39048 34.8764C7.33857 34.9283 7.27687 34.9694 7.20895 34.9973C7.14104 35.0252 7.06826 35.0393 6.99485 35.0388H6.91565C6.84207 35.0393 6.76912 35.0252 6.70101 34.9974C6.63289 34.9695 6.57095 34.9285 6.51876 34.8766C6.46656 34.8248 6.42513 34.7631 6.39687 34.6952C6.3686 34.6272 6.35405 34.5544 6.35405 34.4808V5.3604C6.35405 5.21145 6.41322 5.06861 6.51854 4.96329C6.62386 4.85797 6.76671 4.7988 6.91565 4.7988H6.99485C7.06904 4.79784 7.14267 4.81169 7.21144 4.83952C7.28021 4.86736 7.34274 4.90863 7.39537 4.96093C7.44799 5.01322 7.48967 5.07549 7.51794 5.14408C7.54622 5.21267 7.56054 5.28621 7.56005 5.3604L7.55285 34.4808ZM9.95405 34.4808C9.95405 34.5544 9.9395 34.6272 9.91123 34.6952C9.88297 34.7631 9.84154 34.8248 9.78935 34.8766C9.73715 34.9285 9.67521 34.9695 9.6071 34.9974C9.53898 35.0252 9.46603 35.0393 9.39245 35.0388H9.31325C9.23984 35.0393 9.16707 35.0252 9.09915 34.9973C9.03123 34.9694 8.96953 34.9283 8.91762 34.8764C8.86571 34.8245 8.82463 34.7628 8.79675 34.6949C8.76888 34.627 8.75477 34.5542 8.75525 34.4808V5.3604C8.75478 5.28682 8.76886 5.21387 8.79669 5.14576C8.82452 5.07764 8.86555 5.0157 8.91741 4.9635C8.96927 4.91131 9.03094 4.86988 9.09888 4.84162C9.16681 4.81335 9.23967 4.7988 9.31325 4.7988H9.39245C9.5414 4.7988 9.68424 4.85797 9.78956 4.96329C9.89488 5.06861 9.95405 5.21145 9.95405 5.3604V34.4808Z" fill="currentColor"></path><path d="M22.5611 0.9612H23.0147V0H12.9851V0.9612H13.4387C13.5123 0.960725 13.5853 0.974808 13.6534 1.00264C13.7215 1.03047 13.7834 1.07149 13.8356 1.12336C13.8878 1.17522 13.9293 1.23689 13.9575 1.30483C13.9858 1.37276 14.0003 1.44562 14.0003 1.5192V30.6396C14.0003 30.7134 13.9858 30.7864 13.9576 30.8545C13.9294 30.9227 13.888 30.9846 13.8359 31.0367C13.7837 31.0889 13.7218 31.1302 13.6537 31.1585C13.5855 31.1867 13.5125 31.2012 13.4387 31.2012H12.9851V32.1588H23.0147V31.2012H22.5611C22.4874 31.2012 22.4144 31.1867 22.3462 31.1585C22.2781 31.1302 22.2162 31.0889 22.164 31.0367C22.1119 30.9846 22.0705 30.9227 22.0423 30.8545C22.0141 30.7864 21.9995 30.7134 21.9995 30.6396V1.5192C21.9995 1.44562 22.0141 1.37276 22.0424 1.30483C22.0706 1.23689 22.1121 1.17522 22.1642 1.12336C22.2164 1.07149 22.2784 1.03047 22.3465 1.00264C22.4146 0.974808 22.4876 0.960725 22.5611 0.9612ZM16.1999 30.6396C16.1999 30.7134 16.1854 30.7864 16.1572 30.8545C16.129 30.9227 16.0876 30.9846 16.0355 31.0367C15.9833 31.0889 15.9214 31.1302 15.8533 31.1585C15.7851 31.1867 15.7121 31.2012 15.6383 31.2012H15.5591C15.4856 31.2012 15.4127 31.1866 15.3448 31.1584C15.2768 31.1301 15.2152 31.0887 15.1633 31.0365C15.1114 30.9843 15.0704 30.9224 15.0426 30.8542C15.0147 30.7861 15.0007 30.7132 15.0011 30.6396V1.5192C15.0007 1.44579 15.0148 1.37301 15.0426 1.3051C15.0705 1.23718 15.1116 1.17548 15.1635 1.12357C15.2154 1.07166 15.2771 1.03057 15.345 1.0027C15.413 0.974828 15.4857 0.960722 15.5591 0.9612H15.6383C15.7119 0.960725 15.7849 0.974808 15.853 1.00264C15.9211 1.03047 15.983 1.07149 16.0352 1.12336C16.0874 1.17522 16.1289 1.23689 16.1571 1.30483C16.1854 1.37276 16.1999 1.44562 16.1999 1.5192V30.6396ZM18.6011 30.6396C18.6011 30.7134 18.5866 30.7864 18.5584 30.8545C18.5302 30.9227 18.4888 30.9846 18.4367 31.0367C18.3845 31.0889 18.3226 31.1302 18.2545 31.1585C18.1863 31.1867 18.1133 31.2012 18.0395 31.2012H17.9603C17.8866 31.2012 17.8136 31.1867 17.7454 31.1585C17.6773 31.1302 17.6154 31.0889 17.5632 31.0367C17.5111 30.9846 17.4697 30.9227 17.4415 30.8545C17.4133 30.7864 17.3987 30.7134 17.3987 30.6396V1.5192C17.3987 1.44562 17.4133 1.37276 17.4416 1.30483C17.4698 1.23689 17.5112 1.17522 17.5634 1.12336C17.6156 1.07149 17.6776 1.03047 17.7457 1.00264C17.8138 0.974808 17.8868 0.960725 17.9603 0.9612H18.0395C18.1131 0.960725 18.1861 0.974808 18.2542 1.00264C18.3223 1.03047 18.3842 1.07149 18.4364 1.12336C18.4886 1.17522 18.5301 1.23689 18.5583 1.30483C18.5866 1.37276 18.6011 1.44562 18.6011 1.5192V30.6396ZM20.9987 30.6396C20.9992 30.7132 20.9851 30.7861 20.9573 30.8542C20.9295 30.9224 20.8884 30.9843 20.8366 31.0365C20.7847 31.0887 20.723 31.1301 20.6551 31.1584C20.5872 31.1866 20.5143 31.2012 20.4407 31.2012H20.3615C20.2878 31.2012 20.2148 31.1867 20.1466 31.1585C20.0785 31.1302 20.0166 31.0889 19.9644 31.0367C19.9123 30.9846 19.8709 30.9227 19.8427 30.8545C19.8145 30.7864 19.7999 30.7134 19.7999 30.6396V1.5192C19.7999 1.44562 19.8145 1.37276 19.8428 1.30483C19.871 1.23689 19.9125 1.17522 19.9646 1.12336C20.0168 1.07149 20.0788 1.03047 20.1469 1.00264C20.215 0.974808 20.288 0.960725 20.3615 0.9612H20.4407C20.5142 0.960722 20.5869 0.974828 20.6548 1.0027C20.7228 1.03057 20.7845 1.07166 20.8364 1.12357C20.8883 1.17548 20.9294 1.23718 20.9572 1.3051C20.9851 1.37301 20.9992 1.44579 20.9987 1.5192V30.6396Z" fill="currentColor"></path><path d="M33.606 4.7988H34.0596V3.8412H24.0336V4.7988H24.48C24.5536 4.7988 24.6264 4.81335 24.6944 4.84162C24.7623 4.86988 24.824 4.91131 24.8759 4.9635C24.9277 5.0157 24.9687 5.07764 24.9966 5.14576C25.0244 5.21387 25.0385 5.28682 25.038 5.3604V34.4808C25.0385 34.5542 25.0244 34.627 24.9965 34.6949C24.9686 34.7628 24.9276 34.8245 24.8756 34.8764C24.8237 34.9283 24.762 34.9694 24.6941 34.9973C24.6262 35.0252 24.5534 35.0393 24.48 35.0388H24.0336V36H34.0596V35.0388H33.606C33.5324 35.0393 33.4595 35.0252 33.3914 34.9974C33.3233 34.9695 33.2613 34.9285 33.2091 34.8766C33.1569 34.8248 33.1155 34.7631 33.0872 34.6952C33.059 34.6272 33.0444 34.5544 33.0444 34.4808V5.3604C33.0444 5.28665 33.0589 5.21362 33.0872 5.14548C33.1154 5.07735 33.1567 5.01544 33.2089 4.96329C33.2611 4.91114 33.323 4.86977 33.3911 4.84155C33.4592 4.81332 33.5323 4.7988 33.606 4.7988ZM27.2448 34.4808C27.2453 34.5542 27.2312 34.627 27.2033 34.6949C27.1754 34.7628 27.1343 34.8245 27.0824 34.8764C27.0305 34.9283 26.9688 34.9694 26.9009 34.9973C26.833 35.0252 26.7602 35.0393 26.6868 35.0388H26.604C26.456 35.0388 26.3141 34.98 26.2094 34.8754C26.1048 34.7707 26.046 34.6288 26.046 34.4808V5.3604C26.046 5.21208 26.1047 5.06977 26.2092 4.96456C26.3138 4.85934 26.4557 4.79975 26.604 4.7988H26.6868C26.7604 4.7988 26.8332 4.81335 26.9012 4.84162C26.9691 4.86988 27.0308 4.91131 27.0827 4.9635C27.1345 5.0157 27.1755 5.07764 27.2034 5.14576C27.2312 5.21387 27.2453 5.28682 27.2448 5.3604V34.4808ZM29.646 34.4808C29.646 34.5544 29.6315 34.6272 29.6032 34.6952C29.5749 34.7631 29.5335 34.8248 29.4813 34.8766C29.4291 34.9285 29.3672 34.9695 29.2991 34.9974C29.2309 35.0252 29.158 35.0393 29.0844 35.0388H29.0052C28.9312 35.0402 28.8576 35.0268 28.7889 34.9994C28.7201 34.972 28.6576 34.931 28.6049 34.879C28.5522 34.827 28.5105 34.765 28.4822 34.6966C28.4539 34.6282 28.4395 34.5548 28.44 34.4808V5.3604C28.4395 5.28682 28.4536 5.21387 28.4814 5.14576C28.5093 5.07764 28.5503 5.0157 28.6022 4.9635C28.654 4.91131 28.7157 4.86988 28.7836 4.84162C28.8516 4.81335 28.9244 4.7988 28.998 4.7988H29.0772C29.2262 4.7988 29.369 4.85797 29.4743 4.96329C29.5796 5.06861 29.6388 5.21145 29.6388 5.3604L29.646 34.4808ZM32.0472 34.4808C32.0472 34.5544 32.0327 34.6272 32.0044 34.6952C31.9761 34.7631 31.9347 34.8248 31.8825 34.8766C31.8303 34.9285 31.7684 34.9695 31.7003 34.9974C31.6321 35.0252 31.5592 35.0393 31.4856 35.0388H31.4064C31.3328 35.0393 31.2599 35.0252 31.1918 34.9974C31.1237 34.9695 31.0617 34.9285 31.0095 34.8766C30.9573 34.8248 30.9159 34.7631 30.8876 34.6952C30.8594 34.6272 30.8448 34.5544 30.8448 34.4808V5.3604C30.8448 5.28665 30.8593 5.21362 30.8876 5.14548C30.9158 5.07735 30.9571 5.01544 31.0093 4.96329C31.0614 4.91114 31.1234 4.86977 31.1915 4.84155C31.2596 4.81332 31.3327 4.7988 31.4064 4.7988H31.4856C31.6333 4.80069 31.7743 4.8607 31.8781 4.96581C31.9818 5.07093 32.04 5.21269 32.04 5.3604L32.0472 34.4808Z" fill="currentColor"></path><path d="M33.048 34.0812H35.0028V33.12H33.048V34.0812Z" fill="currentColor"></path><path d="M10.4833 34.0812H25.5205V33.12H10.4833V34.0812Z" fill="currentColor"></path><path d="M48 7.3436V30.182H56.0172V5L48 7.3436Z" fill="currentColor"></path><path d="M71.8032 11.0264C71.7676 10.6913 71.7136 10.3584 71.6413 10.0292C71.4371 8.90094 70.9049 7.85787 70.1113 7.0304C68.9425 5.8688 67.4221 5.288 65.5501 5.288C64.0148 5.33769 62.5087 5.72096 61.1365 6.4112C59.5957 7.1312 57.8893 8.3648 56.0173 10.112L55.7473 10.364L54.75 11.2568L55.3441 11.7968L56.0173 11.1812L56.2873 10.9328C56.87 10.3601 57.5519 9.89779 58.2997 9.5684C58.9722 9.29137 59.6927 9.14947 60.4201 9.1508C60.8986 9.1331 61.3752 9.22064 61.8162 9.40725C62.2573 9.59386 62.6519 9.87499 62.9724 10.2308C63.6096 10.9508 63.9301 11.9624 63.9301 13.2944V30.2144H71.8681V12.3368C71.8692 11.8992 71.8476 11.4618 71.8032 11.0264ZM86.6353 12.362C86.3665 9.962 85.6609 8.1848 84.5185 7.0304C83.9462 6.45366 83.2611 6.00122 82.506 5.70141C81.7509 5.4016 80.942 5.26086 80.1301 5.288C78.6321 5.31005 77.1661 5.72464 75.8785 6.4904C74.2951 7.44875 72.8664 8.64195 71.6413 10.0292L71.4361 10.256L70.5433 11.2568L71.1373 11.7968L71.8032 11.0264L71.9761 10.8248C72.4678 10.3345 73.0265 9.9163 73.6357 9.5828C74.1628 9.30049 74.7513 9.15213 75.3493 9.1508C75.7988 9.13037 76.2467 9.21773 76.6557 9.4056C77.0646 9.59347 77.4227 9.87641 77.7001 10.2308C78.2581 10.9508 78.6073 11.9624 78.7513 13.2944L80.5513 30.2144H88.7521L86.6353 12.362Z" fill="currentColor"></path><path d="M111.529 7.2212C109.928 5.9132 107.528 5.2604 104.329 5.2628C101.862 5.2628 99.8005 5.5952 98.1445 6.26C96.4885 6.9248 95.2417 7.7528 94.4041 8.744C93.5689 9.7352 93.1513 10.7252 93.1513 11.714C93.1513 12.7028 93.4249 13.4552 93.9721 13.9712C94.5818 14.5009 95.3721 14.7755 96.1789 14.738C97.2891 14.786 98.3742 14.3984 99.2029 13.658C99.577 13.3223 99.8745 12.9099 100.075 12.449C100.276 11.9881 100.375 11.4894 100.366 10.9868V8.5028C100.363 8.18915 100.426 7.87844 100.55 7.59031C100.674 7.30217 100.856 7.04288 101.086 6.8288C101.37 6.57642 101.702 6.38285 102.061 6.25927C102.421 6.1357 102.801 6.08456 103.181 6.1088C103.561 6.09027 103.94 6.16181 104.287 6.31759C104.635 6.47336 104.94 6.70897 105.179 7.0052C105.695 7.71046 105.95 8.57347 105.899 9.446V27.3488L106.331 27.0788V27.4388C106.331 27.554 106.331 27.6656 106.349 27.7736C106.391 28.1745 106.517 28.5621 106.719 28.9112C106.92 29.2603 107.193 29.5633 107.519 29.8004C108.311 30.4244 109.535 30.7352 111.191 30.7328C112.129 30.7586 113.063 30.6072 113.945 30.2864V12.7148C113.938 10.3556 113.132 8.5244 111.529 7.2212ZM105.899 27.0968C105.12 27.7545 104.136 28.1199 103.116 28.13C102.653 28.142 102.193 28.0457 101.774 27.8488C101.355 27.6519 100.987 27.3599 100.7 26.996C100.079 26.24 99.7681 25.106 99.7681 23.594C99.7681 22.0292 100.092 20.8292 100.74 19.994C101.059 19.5779 101.473 19.2452 101.948 19.0245C102.424 18.8037 102.945 18.7016 103.469 18.7268C104.083 18.7208 104.695 18.7934 105.29 18.9428C105.496 18.996 105.699 19.0597 105.899 19.1336C106.241 19.2514 106.575 19.3946 106.896 19.562L107.274 18.9428C106.832 18.7021 106.373 18.4963 105.899 18.3272L105.398 18.1688C104.557 17.95 103.69 17.8494 102.821 17.87C99.0409 17.87 96.2593 18.4964 94.4761 19.7492C93.6375 20.2913 92.9517 21.0391 92.4841 21.9213C92.0165 22.8036 91.7827 23.7909 91.8049 24.7892C91.7866 25.6128 91.9598 26.4295 92.3109 27.1748C92.662 27.92 93.1814 28.5736 93.8281 29.084C95.1793 30.2 96.9169 30.758 99.0409 30.758C100.658 30.7689 102.257 30.4183 103.721 29.732C104.724 29.275 105.622 28.617 106.36 27.7988C106.642 27.4834 106.897 27.1451 107.123 26.7872L106.691 26.2472C106.466 26.5648 106.2 26.8505 105.899 27.0968Z" fill="currentColor"></path><path d="M137.305 5.882L130.897 24.242L124.111 5.882H115.831L124.842 29.48C124.924 29.7164 125.079 29.9206 125.285 30.0632C125.485 30.1812 125.715 30.241 125.947 30.236H129.241C129.458 30.2396 129.672 30.1889 129.864 30.0884C130.06 29.97 130.204 29.7824 130.267 29.5628L138.659 5.882H137.305Z" fill="currentColor"></path><path d="M189.156 11.9588C188.899 9.7436 188.278 8.078 187.291 6.962C186.305 5.846 184.909 5.288 183.105 5.288C181.905 5.288 180.577 5.6936 179.123 6.5048C177.39 7.53815 175.767 8.7443 174.277 10.1048L174.036 10.3208L173.007 11.2136L173.579 11.768L174.281 11.1812L174.58 10.9328C175.138 10.4021 175.771 9.95584 176.459 9.608C177.028 9.31917 177.657 9.16637 178.295 9.1616C178.681 9.13582 179.068 9.20312 179.422 9.35786C179.777 9.5126 180.089 9.75025 180.333 10.0508C180.791 10.646 181.102 11.5916 181.265 12.8876L183.025 30.1928H191.233L189.156 11.9588Z" fill="currentColor"></path><path d="M166.26 7.3472V30.182H174.277V5.0252L166.26 7.3472Z" fill="currentColor"></path><path d="M162.444 15.872C162.477 13.9751 162.021 12.1017 161.119 10.4324C160.25 8.85138 158.954 7.54654 157.379 6.66681C155.603 5.70816 153.607 5.2327 151.59 5.28801C149.239 5.22961 146.914 5.79344 144.851 6.92241C142.965 7.99662 141.437 9.60322 140.459 11.5412C139.393 13.7006 138.864 16.0853 138.918 18.4928C138.869 20.7395 139.408 22.9601 140.484 24.9332C141.492 26.7486 142.989 28.2452 144.804 29.2532C146.751 30.306 148.938 30.8356 151.151 30.7904C153.11 30.8241 155.049 30.3896 156.806 29.5232C158.405 28.7363 159.77 27.5448 160.766 26.0672C161.736 24.6164 162.279 22.9225 162.332 21.1784C162.336 21.1341 162.336 21.0895 162.332 21.0452H161.504C161.403 21.7793 161.153 22.4848 160.768 23.1182C160.384 23.7516 159.873 24.2995 159.269 24.728C157.926 25.6514 156.322 26.1196 154.693 26.0636C152.173 26.0636 150.133 25.1864 148.573 23.432C147.292 21.9776 146.542 19.8752 146.323 17.1248H162.426L162.444 15.872ZM154.477 16.1168H146.284C146.284 15.8504 146.284 15.5804 146.284 15.3068C146.24 13.5928 146.426 11.8807 146.838 10.2164C147.205 8.91321 147.714 7.95321 148.364 7.33641C148.653 7.04181 148.998 6.80764 149.378 6.64755C149.758 6.48747 150.166 6.40468 150.578 6.40401C151.658 6.40401 152.58 7.12401 153.343 8.56401C154.106 10.004 154.489 12.2936 154.492 15.4328L154.477 16.1168Z" fill="currentColor"></path></svg>